<svg width="98" height="56" viewBox="0 0 98 56" fill="none" xmlns="http://www.w3.org/2000/svg">
<path d="M3 0.5C1.61929 0.5 0.5 1.61929 0.5 3V53C0.5 54.3807 1.61929 55.5 3 55.5H95C96.3807 55.5 97.5 54.3807 97.5 53V3C97.5 1.61929 96.3807 0.5 95 0.5H3Z" stroke="#1976D2"/>
<mask id="path-2-inside-1_533_11219" fill="white">
<path d="M1 3C1 1.89543 1.89543 1 3 1H48.5V54.4375H3C1.89543 54.4375 1 53.5421 1 52.4375V3Z"/>
</mask>
<path d="M1 3C1 1.89543 1.89543 1 3 1H48.5V54.4375H3C1.89543 54.4375 1 53.5421 1 52.4375V3Z" fill="#007FFF" fill-opacity="0.12"/>
<path d="M-2 3C-2 0.238576 0.238576 -2 3 -2H51.5L45.5 4H4L-2 3ZM51.5 57.4375H3C0.238576 57.4375 -2 55.1989 -2 52.4375L4 51.4375H45.5L51.5 57.4375ZM3 57.4375C0.238576 57.4375 -2 55.1989 -2 52.4375V3C-2 0.238576 0.238576 -2 3 -2L4 4V51.4375L3 57.4375ZM51.5 -2V57.4375L45.5 51.4375V4L51.5 -2Z" fill="white" mask="url(#path-2-inside-1_533_11219)"/>
<mask id="path-4-inside-2_533_11219" fill="white">
<path d="M49.5 1H95C96.1046 1 97 1.89543 97 3V52.4375C97 53.5421 96.1046 54.4375 95 54.4375H49.5V1Z"/>
</mask>
<path d="M49.5 1H95C96.1046 1 97 1.89543 97 3V52.4375C97 53.5421 96.1046 54.4375 95 54.4375H49.5V1Z" fill="#007FFF" fill-opacity="0.12"/>
<path d="M46.5 -2H95C97.7614 -2 100 0.238576 100 3L94 4H52.5L46.5 -2ZM100 52.4375C100 55.1989 97.7614 57.4375 95 57.4375H46.5L52.5 51.4375H94L100 52.4375ZM46.5 57.4375V-2L52.5 4V51.4375L46.5 57.4375ZM95 -2C97.7614 -2 100 0.238576 100 3V52.4375C100 55.1989 97.7614 57.4375 95 57.4375L94 51.4375V4L95 -2Z" fill="white" mask="url(#path-4-inside-2_533_11219)"/>
<rect x="48.5" y="1" width="1" height="54" fill="#1976D2"/>
</svg>
