<svg width="98" height="56" viewBox="0 0 98 56" fill="none" xmlns="http://www.w3.org/2000/svg">
<path d="M2.5 3C2.5 2.72386 2.72386 2.5 3 2.5H34.1967L24.7523 53.5H3C2.72386 53.5 2.5 53.2761 2.5 53V3Z" fill="#1976D2" fill-opacity="0.12" stroke="white" stroke-width="3"/>
<path d="M95.5 53C95.5 53.2761 95.2761 53.5 95 53.5L61.8033 53.5L71.2477 2.5L95 2.5C95.2761 2.5 95.5 2.72386 95.5 3L95.5 53Z" fill="#1976D2" fill-opacity="0.12" stroke="white" stroke-width="3"/>
<rect x="0.5" y="0.5" width="97" height="55" rx="2.5" stroke="#1976D2"/>
<path d="M37 0.5H36.5841L36.5084 0.908955L26.5084 54.909L26.3989 55.5H27H59H59.4159L59.4916 55.091L69.4916 1.09104L69.6011 0.5H69H37Z" stroke="#1976D2"/>
<path d="M28.8033 53.5L38.2477 2.5H67.1967L57.7523 53.5H28.8033Z" fill="#1976D2" fill-opacity="0.12" stroke="white" stroke-width="3"/>
</svg>
