<svg width="98" height="56" viewBox="0 0 98 56" fill="none" xmlns="http://www.w3.org/2000/svg">
<path d="M3 0.5C1.61929 0.5 0.5 1.61929 0.5 3V53C0.5 54.3807 1.61929 55.5 3 55.5H95C96.3807 55.5 97.5 54.3807 97.5 53V3C97.5 1.61929 96.3807 0.5 95 0.5H3Z" stroke="#1976D2"/>
<mask id="path-2-inside-1_533_11221" fill="white">
<path d="M1 28.5H97V53C97 54.1046 96.1046 55 95 55H3C1.89543 55 1 54.1046 1 53V28.5Z"/>
</mask>
<path d="M1 28.5H97V53C97 54.1046 96.1046 55 95 55H3C1.89543 55 1 54.1046 1 53V28.5Z" fill="#1976D2" fill-opacity="0.12" stroke="white" stroke-width="6" mask="url(#path-2-inside-1_533_11221)"/>
<mask id="path-3-inside-2_533_11221" fill="white">
<path d="M1 27.5H97V3C97 1.89543 96.1046 1 95 1H3C1.89543 1 1 1.89543 1 3V27.5Z"/>
</mask>
<path d="M1 27.5H97V3C97 1.89543 96.1046 1 95 1H3C1.89543 1 1 1.89543 1 3V27.5Z" fill="#1976D2" fill-opacity="0.12" stroke="white" stroke-width="6" mask="url(#path-3-inside-2_533_11221)"/>
<rect x="1" y="27.5" width="96" height="1" fill="#1976D2"/>
</svg>
