<svg width="98" height="56" viewBox="0 0 98 56" fill="none" xmlns="http://www.w3.org/2000/svg">
<path d="M64.5 0.5H64.2082L64.0646 0.754104L33.5646 54.7541L33.1434 55.5H34H95C96.3807 55.5 97.5 54.3807 97.5 53V3C97.5 1.61929 96.3807 0.5 95 0.5H64.5Z" stroke="#1976D2"/>
<path d="M36.5699 53.5L65.3755 2.5H95C95.2761 2.5 95.5 2.72386 95.5 3V53C95.5 53.2761 95.2761 53.5 95 53.5H36.5699Z" fill="#1976D2" fill-opacity="0.12" stroke="white" stroke-width="3"/>
<path d="M33 55.5L33.2918 55.5L33.4354 55.2459L63.9354 1.2459L64.3567 0.5L63.5 0.5L3 0.499995C1.61929 0.499995 0.500001 1.61928 0.500001 2.99999L0.500004 53C0.500004 54.3807 1.61929 55.5 3 55.5L33 55.5Z" stroke="#1976D2"/>
<path d="M60.9301 2.5L32.1245 53.5L3 53.5C2.72386 53.5 2.5 53.2761 2.5 53L2.5 2.99999C2.5 2.72385 2.72386 2.49999 3 2.49999L60.9301 2.5Z" fill="#1976D2" fill-opacity="0.12" stroke="white" stroke-width="3"/>
</svg>
