<svg width="98" height="56" viewBox="0 0 98 56" fill="none" xmlns="http://www.w3.org/2000/svg">
<path d="M3 0.5C1.61929 0.5 0.5 1.61929 0.5 3V53C0.5 54.3807 1.61929 55.5 3 55.5H95C96.3807 55.5 97.5 54.3807 97.5 53V3C97.5 1.61929 96.3807 0.5 95 0.5H3Z" stroke="#1976D2"/>
<mask id="path-2-inside-1_533_11272" fill="white">
<path d="M1 3C1 1.89543 1.89543 1 3 1H32.5V55H3C1.89543 55 1 54.1046 1 53V3Z"/>
</mask>
<path d="M1 3C1 1.89543 1.89543 1 3 1H32.5V55H3C1.89543 55 1 54.1046 1 53V3Z" fill="#007FFF" fill-opacity="0.12"/>
<path d="M-2 3C-2 0.238576 0.238576 -2 3 -2H35.5L29.5 4H4L-2 3ZM35.5 58H3C0.238576 58 -2 55.7614 -2 53L4 52H29.5L35.5 58ZM3 58C0.238576 58 -2 55.7614 -2 53V3C-2 0.238576 0.238576 -2 3 -2L4 4V52L3 58ZM35.5 -2V58L29.5 52V4L35.5 -2Z" fill="white" mask="url(#path-2-inside-1_533_11272)"/>
<mask id="path-4-inside-2_533_11272" fill="white">
<path d="M65.5 1H95C96.1046 1 97 1.89543 97 3V53C97 54.1046 96.1046 55 95 55H65.5V1Z"/>
</mask>
<path d="M65.5 1H95C96.1046 1 97 1.89543 97 3V53C97 54.1046 96.1046 55 95 55H65.5V1Z" fill="#007FFF" fill-opacity="0.12"/>
<path d="M62.5 -2H95C97.7614 -2 100 0.238576 100 3L94 4H68.5L62.5 -2ZM100 53C100 55.7614 97.7614 58 95 58H62.5L68.5 52H94L100 53ZM62.5 58V-2L68.5 4V52L62.5 58ZM95 -2C97.7614 -2 100 0.238576 100 3V53C100 55.7614 97.7614 58 95 58L94 52V4L95 -2Z" fill="white" mask="url(#path-4-inside-2_533_11272)"/>
<mask id="path-6-inside-3_533_11272" fill="white">
<path d="M33.5 1H64.5V55H33.5V1Z"/>
</mask>
<path d="M33.5 1H64.5V55H33.5V1Z" fill="#007FFF" fill-opacity="0.12"/>
<path d="M30.5 -2H67.5L61.5 4H36.5L30.5 -2ZM67.5 58H30.5L36.5 52H61.5L67.5 58ZM30.5 58V-2L36.5 4V52L30.5 58ZM67.5 -2V58L61.5 52V4L67.5 -2Z" fill="white" mask="url(#path-6-inside-3_533_11272)"/>
<rect x="32.5" y="1" width="1" height="54" fill="#1976D2"/>
<rect x="64.5" y="1" width="1" height="54" fill="#1976D2"/>
</svg>
